<svg width="60" height="96" viewBox="0 0 60 96" fill="none" xmlns="http://www.w3.org/2000/svg">
<path fill-rule="evenodd" clip-rule="evenodd" d="M48 75.0014C48 76.6586 46.6582 77.9998 45 77.9998H15C13.3418 77.9998 11.9999 76.6586 11.9999 75.0014C11.9999 73.3426 13.3418 72.0005 15 72.0005H45C46.6582 72.0005 48 73.3426 48 75.0014ZM45 81.0007H15C13.3418 81.0007 11.9999 82.3415 11.9999 84.0007C11.9999 85.66 13.3418 87 15 87H45C46.6582 87 48 85.66 48 84.0007C48 82.3415 46.6582 81.0007 45 81.0007ZM24 96.0001H35.9999C39.3164 96.0001 41.9999 93.3169 41.9999 90.0004H18C18 93.3169 20.6836 96.0001 24 96.0001ZM60 30.0002C60 46.3123 50.1679 48.2107 48.3222 66C48.3222 67.6589 46.9804 69.0009 45.3223 69.0009H14.6778C13.0194 69.0009 11.6776 67.6589 11.6776 66H11.6718C9.83208 48.2107 0 46.3123 0 30.0002C0 13.4306 13.4296 0 30 0C46.5702 0 60 13.4306 60 30.0002ZM42.1464 21.0008C7.27148 29.25 24.1465 51.0009 24.1465 51.0009C24.1465 38.9999 32.959 36.1874 33.1464 36.5633C26.959 42.5634 24.1465 63.0003 24.1465 63.0003H30.1465C30.1465 63.0003 30.1465 56.9998 30.1465 51.0009C47.209 51.9378 42.1464 23.062 42.1464 21.0008Z" fill="#18CFAB"/>
</svg>
