<svg width="58" height="97" viewBox="0 0 58 97" fill="none" xmlns="http://www.w3.org/2000/svg">
<path fill-rule="evenodd" clip-rule="evenodd" d="M15.245 34.98L15.2559 19.1317C15.2559 17.3015 15.9417 15.5893 17.1957 14.3105C18.5887 12.904 20.5821 12.1006 22.6825 12.1006C24.3222 12.1006 25.8977 12.6112 27.1194 13.5199C28.5984 14.6257 29.5199 16.2944 29.713 18.1999C29.713 18.2428 30.5594 26.509 31.3203 33.9077C36.6466 30.7441 40.2369 24.8956 40.2369 18.1999C40.2369 8.1472 32.1776 0 22.2325 0C12.2874 0 4.22803 8.1472 4.22803 18.1999C4.21748 25.7391 8.76149 32.2171 15.245 34.98ZM15.9632 94.8349C15.9632 96.0245 16.9277 97.0002 18.1066 97.0002H49.7857C50.9645 97.0002 51.9289 96.0245 51.9289 94.8349V89.8704H15.9632V94.8349ZM54.2117 51.0245C56.2052 51.6735 57.5448 53.5475 57.5448 55.6603L57.5234 72.9291C57.5234 75.4971 56.8372 78.0098 55.5404 80.2089L51.9076 86.4168H15.9417C5.93201 76.1675 0.852475 65.2383 0.0806422 60.5472C-0.455121 57.3287 1.76327 55.1745 4.22803 55.1745C5.63195 55.1745 7.12175 55.8664 8.23628 57.4798C8.5899 58.0015 8.97572 58.5637 9.40449 59.1808C12.5705 63.8166 15.8201 63.9136 17.303 63.9579L17.3562 63.9595H17.3884C17.4315 63.9595 17.4851 63.9595 17.5277 63.9471H17.5493C18.0636 63.8728 18.4387 63.4386 18.4387 62.9186L18.4603 19.1198C18.4493 16.6616 20.5927 15.3407 22.6719 15.3407C24.5044 15.3407 26.2835 16.3684 26.5087 18.5365C26.5087 18.5803 29.2737 45.6081 29.2843 45.6936V45.706H29.2948C30.0559 45.0224 31.3203 44.6229 32.7671 44.6229C33.3032 44.6229 33.8604 44.6766 34.4283 44.7836C36.2608 45.1529 48.2639 49.0625 54.2117 51.0245Z" fill="#18CFAB"/>
</svg>
