<svg width="99" height="76" viewBox="0 0 99 76" fill="none" xmlns="http://www.w3.org/2000/svg">
<path fill-rule="evenodd" clip-rule="evenodd" d="M81.362 5.36528H19.1884V16.541H13.7103V0H86.8414V30.0845H81.362V5.36528ZM38.797 76.0002H0V18.9781H38.797V76.0002ZM18.3483 71.3066C18.3483 72.3141 19.1844 73.1418 20.2169 73.1418C21.2505 73.1418 22.0906 72.3141 22.0878 71.3066C22.0878 70.2979 21.2505 69.4763 20.2169 69.4763C19.1844 69.4763 18.3483 70.2979 18.3483 71.3066ZM33.1906 24.473H5.61051V66.5456H33.1886L33.1906 24.473ZM41.2976 41.8761H70.1106V47.2422H41.2976V41.8761ZM72.9428 75.1093V32.1663H99V75.1093H72.9428ZM87.1791 34.5612C87.1791 34.2192 86.8982 33.9445 86.5502 33.9445C86.2023 33.9445 85.9195 34.2171 85.9195 34.5612C85.9195 34.8986 86.2023 35.18 86.5502 35.18C86.8982 35.18 87.1791 34.8986 87.1791 34.5612ZM90.2979 36.0044H82.8025V36.5934H90.2979V36.0044ZM84.8006 71.78C84.8006 72.5929 85.4761 73.2554 86.3039 73.2554C87.1322 73.2554 87.8076 72.5929 87.8076 71.78C87.8076 70.9663 87.1322 70.3087 86.3039 70.3087C85.4718 70.3087 84.8006 70.9708 84.8006 71.78ZM77.1239 68.2326C80.4789 68.2599 88.0518 68.2359 94.819 68.1979V38.703L77.1239 38.7071V68.2326ZM41.2976 49.4376H49.2273H51.3128H70.1106V57.0552H41.2976V54.1155H60.6111V52.6904H41.2976V49.4376Z" fill="white"/>
</svg>
